<svg version="1.1" viewBox="0.0 0.0 960.0 720.0" fill="none" stroke="none" stroke-linecap="square" stroke-miterlimit="10" xmlns:xlink="http://www.w3.org/1999/xlink" xmlns="http://www.w3.org/2000/svg"><clipPath id="p.0"><path d="m0 0l960.0 0l0 720.0l-960.0 0l0 -720.0z" clip-rule="nonzero"/></clipPath><g clip-path="url(#p.0)"><path fill="#000000" fill-opacity="0.0" d="m0 0l960.0 0l0 720.0l-960.0 0z" fill-rule="evenodd"/><path fill="#000000" fill-opacity="0.0" d="m0 0l960.0 0l0 720.0l-960.0 0z" fill-rule="evenodd"/><path fill="#0f0f0f" d="m356.8062 192.7969q-6.0 0 -10.203125 -0.796875l0 -20.0q3.203125 0.796875 7.203125 0.796875q6.59375 0 9.796875 -3.296875q3.203125 -3.296875 3.203125 -10.09375l0 -107.40625l22.0 0l0 106.796875q0 17.203125 -7.90625 25.609375q-7.90625 8.390625 -24.09375 8.390625zm47.796875 -140.79688l60.0 0l0 20.0l-38.0 0l0 37.0l30.203125 0l0 20.0l-30.203125 0l0 43.0l38.0 0l0 20.0l-60.0 0l0 -140.0zm101.59378 142.0q-16.0 0 -24.203125 -9.09375q-8.1875 -9.109375 -8.1875 -26.109375l0 -8.0l20.796875 0l0 9.609375q0 13.59375 11.390625 13.59375q5.609375 0 8.5000305 -3.296875q2.90625 -3.296875 2.90625 -10.703125q0 -8.796875 -4.0 -15.5q-4.0000305 -6.703125 -14.7969055 -16.09375q-13.609375 -12.0 -19.015625 -21.703125q-5.390625 -9.703125 -5.390625 -21.90625q0 -16.59375 8.390625 -25.6875q8.40625 -9.109375 24.40625 -9.109375q15.8125305 0 23.90628 9.109375q8.09375 9.09375 8.09375 26.09375l0 5.796875l-20.796875 0l0 -7.203125q0 -7.203125 -2.796875 -10.5q-2.796875 -3.296875 -8.2031555 -3.296875q-11.0 0 -11.0 13.40625q0 7.59375 4.09375 14.203125q4.109375 6.59375 14.9062805 15.984375q13.796875 12.0 19.0 21.8125q5.203125 9.796875 5.203125 23.0q0 17.1875 -8.5 26.390625q-8.5 9.203125 -24.703156 9.203125zm63.00943 -122.0l-23.0 0l0 -20.0l68.0 0l0 20.0l-23.0 0l0 120.0l-22.0 0l0 -120.0z" fill-rule="nonzero"/><path fill="#0f0f0f" d="m373.5031 292.0l58.203125 0l0 20.0l-36.203125 0l0 39.0l28.390625 0l0 20.0l-28.390625 0l0 61.0l-22.0 0l0 -140.0zm100.59689 142.0q-16.203125 0 -24.8125 -9.203125q-8.59375 -9.203125 -8.59375 -26.0l0 -73.59375q0 -16.796875 8.59375 -26.0q8.609375 -9.203125 24.8125 -9.203125q16.203125 0 24.796875 9.203125q8.609375 9.203125 8.609375 26.0l0 73.59375q0 16.796875 -8.609375 26.0q-8.59375 9.203125 -24.796875 9.203125zm0 -20.0q11.40625 0 11.40625 -13.796875l0 -76.40625q0 -13.796875 -11.40625 -13.796875q-11.40625 0 -11.40625 13.796875l0 76.40625q0 13.796875 11.40625 13.796875zm48.203156 -122.0l32.59375 0q17.0 0 24.796875 7.90625q7.8125 7.890625 7.8125 24.296875l0 8.59375q0 21.796875 -14.40625 27.609375l0 0.390625q8.0 2.40625 11.296875 9.8125q3.296875 7.390625 3.296875 19.796875l0 24.59375q0 6.0 0.40625 9.703125q0.40625 3.703125 2.0 7.296875l-22.40625 0q-1.1875 -3.40625 -1.59375 -6.40625q-0.40625 -3.0 -0.40625 -10.796875l0 -25.59375q0 -9.609375 -3.09375 -13.40625q-3.09375 -3.796875 -10.703125 -3.796875l-7.59375 0l0 60.0l-22.0 0l0 -140.0zm30.0 60.0q6.59375 0 9.890625 -3.390625q3.3125 -3.40625 3.3125 -11.40625l0 -10.796875q0 -7.609375 -2.703125 -11.0q-2.703125 -3.40625 -8.5 -3.40625l-10.0 0l0 40.0l8.0 0z" fill-rule="nonzero"/><path fill="#0f0f0f" d="m154.00302 532.0l33.203125 0q17.0 0 24.796875 7.90625q7.796875 7.890625 7.796875 24.296875l0 5.59375q0 10.796875 -3.5 17.609375q-3.5 6.796875 -10.703125 9.796875l0 0.390625q16.40625 5.609375 16.40625 29.203125l0 12.0q0 16.203125 -8.5 24.703125q-8.5 8.5 -24.90625 8.5l-34.59375 0l0 -140.0zm30.59375 57.0q6.609375 0 9.90625 -3.390625q3.296875 -3.40625 3.296875 -11.40625l0 -7.796875q0 -7.609375 -2.703125 -11.0q-2.703125 -3.40625 -8.5 -3.40625l-10.59375 0l0 37.0l8.59375 0zm4.0 63.0q5.796875 0 8.59375 -3.09375q2.8125 -3.109375 2.8125 -10.703125l0 -12.203125q0 -9.59375 -3.3125 -13.296875q-3.296875 -3.703125 -10.890625 -3.703125l-9.796875 0l0 43.0l12.59375 0zm46.20627 -120.0l60.0 0l0 20.0l-38.0 0l0 37.0l30.203125 0l0 20.0l-30.203125 0l0 43.0l38.0 0l0 20.0l-60.0 0l0 -140.0zm103.80316 142.0q-16.0 0 -24.40625 -9.09375q-8.40625 -9.109375 -8.40625 -26.109375l0 -73.59375q0 -17.0 8.40625 -26.09375q8.40625 -9.109375 24.40625 -9.109375q16.0 0 24.390625 9.109375q8.40625 9.09375 8.40625 26.09375l0 12.0l-20.796875 0l0 -13.40625q0 -13.796875 -11.40625 -13.796875q-11.40625 0 -11.40625 13.796875l0 76.609375q0 13.59375 11.40625 13.59375q11.40625 0 11.40625 -13.59375l0 -27.40625l-11.0 0l0 -20.0l31.796875 0l0 45.796875q0 17.0 -8.40625 26.109375q-8.390625 9.09375 -24.390625 9.09375zm46.996887 -142.0l22.0 0l0 140.0l-22.0 0l0 -140.0zm38.399994 0l27.59375 0l21.40625 83.796875l0.390625 0l0 -83.796875l19.609375 0l0 140.0l-22.609375 0l-26.390625 -102.203125l-0.40625 0l0 102.203125l-19.59375 0l0 -140.0zm85.400024 0l27.59372 0l21.40625 83.796875l0.390625 0l0 -83.796875l19.609375 0l0 140.0l-22.609375 0l-26.390625 -102.203125l-0.40625 0l0 102.203125l-19.59372 0l0 -140.0zm85.399994 0l60.0 0l0 20.0l-38.0 0l0 37.0l30.203125 0l0 20.0l-30.203125 0l0 43.0l38.0 0l0 20.0l-60.0 0l0 -140.0zm72.6001 0l32.59375 0q17.0 0 24.796875 7.90625q7.8125 7.890625 7.8125 24.296875l0 8.59375q0 21.796875 -14.40625 27.609375l0 0.390625q8.0 2.40625 11.296875 9.8125q3.296875 7.390625 3.296875 19.796875l0 24.59375q0 6.0 0.40625 9.703125q0.40625 3.703125 2.0 7.296875l-22.40625 0q-1.1875 -3.40625 -1.59375 -6.40625q-0.40625 -3.0 -0.40625 -10.796875l0 -25.59375q0 -9.609375 -3.09375 -13.40625q-3.09375 -3.796875 -10.703125 -3.796875l-7.59375 0l0 60.0l-22.0 0l0 -140.0zm30.0 60.0q6.59375 0 9.890625 -3.390625q3.3125 -3.40625 3.3125 -11.40625l0 -10.796875q0 -7.609375 -2.703125 -11.0q-2.703125 -3.40625 -8.5 -3.40625l-10.0 0l0 40.0l8.0 0zm79.193726 82.0q-16.0 0 -24.203125 -9.09375q-8.1875 -9.109375 -8.1875 -26.109375l0 -8.0l20.796875 0l0 9.609375q0 13.59375 11.390625 13.59375q5.609375 0 8.5 -3.296875q2.90625 -3.296875 2.90625 -10.703125q0 -8.796875 -4.0 -15.5q-4.0 -6.703125 -14.796875 -16.09375q-13.609375 -12.0 -19.015625 -21.703125q-5.390625 -9.703125 -5.390625 -21.90625q0 -16.59375 8.390625 -25.6875q8.40625 -9.109375 24.40625 -9.109375q15.8125 0 23.90625 9.109375q8.09375 9.09375 8.09375 26.09375l0 5.796875l-20.796875 0l0 -7.203125q0 -7.203125 -2.796875 -10.5q-2.796875 -3.296875 -8.203125 -3.296875q-11.0 0 -11.0 13.40625q0 7.59375 4.09375 14.203125q4.109375 6.59375 14.90625 15.984375q13.796875 12.0 19.0 21.8125q5.203125 9.796875 5.203125 23.0q0 17.1875 -8.5 26.390625q-8.5 9.203125 -24.703125 9.203125z" fill-rule="nonzero"/></g></svg>